<svg width="109" height="33" viewBox="0 0 109 33" fill="none" xmlns="http://www.w3.org/2000/svg">
<g clip-path="url(#clip0_1497_15117)">
<path d="M12.2231 1.33008L7.895 1.96799L0 15.9732L7.895 29.9785L12.2231 30.6164L3.82063 15.9732L12.2231 1.33008ZM23.3153 1.33008L27.6434 1.96799L35.5384 15.9732L27.6434 29.9713L23.3153 30.6092L31.7178 15.966L23.3153 1.33008Z" fill="black"/>
<path d="M12.2228 1.32933L17.7689 0.691406V15.9725H3.82031L12.2228 1.32933Z" fill="#FFF8DA"/>
<path d="M12.2228 30.6086L17.7689 31.2465V15.9727H3.82031L12.2228 30.6086Z" fill="#FFE46B"/>
<path d="M23.3146 30.6086L17.7686 31.2465V15.9727H31.7171L23.3146 30.6086Z" fill="#FFD209"/>
<path d="M23.3146 1.32933L17.7686 0.691406V15.9725H31.7171L23.3146 1.32933Z" fill="#FFF1B5"/>
<path d="M53.891 12.9166C53.6672 14.2467 53.1203 15.2784 52.2501 16.0118C51.38 16.7452 50.2985 17.1119 49.0058 17.1119C47.5887 17.1119 46.3954 16.6271 45.4258 15.6575C44.854 15.0857 44.4935 14.4207 44.3444 13.6624C44.1952 12.9166 44.1206 11.8165 44.1206 10.3621C44.1206 8.90776 44.1952 7.80767 44.3444 7.06184C44.4935 6.30358 44.854 5.63855 45.4258 5.06675C46.3954 4.09717 47.5887 3.61238 49.0058 3.61238C50.2985 3.61238 51.38 3.97908 52.2501 4.71248C53.1203 5.44588 53.6672 6.4776 53.891 7.80767H51.2619C50.9511 6.55219 50.2053 5.92445 49.0244 5.92445C48.3035 5.92445 47.7503 6.15441 47.365 6.61434C47.0915 6.90024 46.9112 7.27937 46.8242 7.75173C46.7496 8.21166 46.7124 9.08179 46.7124 10.3621C46.7124 11.6425 46.7496 12.5188 46.8242 12.9912C46.9112 13.4511 47.0915 13.824 47.365 14.1099C47.7503 14.5698 48.3035 14.7998 49.0244 14.7998C50.2053 14.7998 50.9511 14.1721 51.2619 12.9166H53.891ZM63.6635 12.1335C63.6635 13.0658 63.5827 13.824 63.4211 14.4082C63.2719 14.98 62.986 15.4835 62.5634 15.9185C61.8176 16.7141 60.8107 17.1119 59.5428 17.1119C58.2873 17.1119 57.2867 16.7141 56.5408 15.9185C56.1182 15.4835 55.8261 14.98 55.6645 14.4082C55.5153 13.824 55.4407 13.0658 55.4407 12.1335C55.4407 11.2136 55.5153 10.4678 55.6645 9.89598C55.8261 9.31175 56.1182 8.8021 56.5408 8.36704C57.2867 7.57149 58.2873 7.17371 59.5428 7.17371C60.8107 7.17371 61.8176 7.57149 62.5634 8.36704C62.986 8.8021 63.2719 9.31175 63.4211 9.89598C63.5827 10.4678 63.6635 11.2136 63.6635 12.1335ZM61.2395 12.1335C61.2395 10.9401 61.0531 10.157 60.6802 9.78411C60.3943 9.49821 60.0151 9.35526 59.5428 9.35526C59.0829 9.35526 58.7099 9.49821 58.424 9.78411C58.0511 10.157 57.8647 10.9401 57.8647 12.1335C57.8647 13.3392 58.0511 14.1286 58.424 14.5015C58.7099 14.7874 59.0829 14.9303 59.5428 14.9303C60.0151 14.9303 60.3943 14.7874 60.6802 14.5015C61.0531 14.1286 61.2395 13.3392 61.2395 12.1335ZM79.605 17H77.181V11.1266C77.181 10.5175 77.0195 10.07 76.6963 9.78411C76.3855 9.49821 76.0126 9.35526 75.5775 9.35526C75.1424 9.35526 74.7633 9.49821 74.4401 9.78411C74.1169 10.0576 73.9553 10.4864 73.9553 11.0707V17H71.5314V11.1266C71.5314 10.5175 71.3698 10.07 71.0466 9.78411C70.7358 9.49821 70.3629 9.35526 69.9279 9.35526C69.4804 9.35526 69.095 9.49821 68.7718 9.78411C68.4611 10.07 68.3057 10.5175 68.3057 11.1266V17H65.8817V7.28559H68.2498V8.18058C68.8961 7.50933 69.7041 7.17371 70.6737 7.17371C71.7924 7.17371 72.6501 7.58392 73.2468 8.40433C74.0299 7.58392 74.9995 7.17371 76.1555 7.17371C77.1748 7.17371 77.9704 7.45961 78.5422 8.03141C79.2507 8.73995 79.605 9.65981 79.605 10.791V17ZM95.845 17H93.421V11.1266C93.421 10.5175 93.2594 10.07 92.9362 9.78411C92.6255 9.49821 92.2526 9.35526 91.8175 9.35526C91.3824 9.35526 91.0033 9.49821 90.6801 9.78411C90.3569 10.0576 90.1953 10.4864 90.1953 11.0707V17H87.7714V11.1266C87.7714 10.5175 87.6098 10.07 87.2866 9.78411C86.9758 9.49821 86.6029 9.35526 86.1678 9.35526C85.7203 9.35526 85.335 9.49821 85.0118 9.78411C84.701 10.07 84.5457 10.5175 84.5457 11.1266V17H82.1217V7.28559H84.4897V8.18058C85.1361 7.50933 85.9441 7.17371 86.9137 7.17371C88.0324 7.17371 88.8901 7.58392 89.4868 8.40433C90.2699 7.58392 91.2395 7.17371 92.3955 7.17371C93.4148 7.17371 94.2104 7.45961 94.7822 8.03141C95.4907 8.73995 95.845 9.65981 95.845 10.791V17ZM100.786 17H98.3617V7.28559H100.786V17ZM100.804 5.62612H98.3244V3.64967H100.804V5.62612ZM107.766 17H106.443C105.523 17 104.82 16.7265 104.336 16.1796C103.863 15.6326 103.627 14.98 103.627 14.2218V9.4112H102.602V7.56527H103.627V4.69383H106.051V7.56527H107.766V9.4112H106.051V14.0726C106.051 14.6569 106.331 14.949 106.89 14.949H107.766V17Z" fill="black"/>
<path d="M48.6542 25.727C48.6542 26.1659 48.6092 26.526 48.5192 26.8073C48.4348 27.0886 48.2885 27.339 48.0803 27.5584C47.6302 28.0142 47.0647 28.242 46.3839 28.242C45.7425 28.242 45.2024 28.0226 44.7635 27.5838C44.5047 27.3249 44.3415 27.0239 44.274 26.6807C44.2065 26.3431 44.1727 25.8452 44.1727 25.1869C44.1727 24.5286 44.2065 24.0307 44.274 23.6931C44.3415 23.3499 44.5047 23.0489 44.7635 22.79C45.2024 22.3512 45.7425 22.1317 46.3839 22.1317C47.031 22.1317 47.5486 22.3118 47.9368 22.6719C48.325 23.032 48.5614 23.4933 48.6458 24.056H47.4642C47.3179 23.4708 46.9578 23.1783 46.3839 23.1783C46.0688 23.1783 45.8185 23.2852 45.6328 23.499C45.5146 23.6453 45.4359 23.8225 45.3965 24.0307C45.3627 24.2332 45.3459 24.6186 45.3459 25.1869C45.3459 25.7664 45.3627 26.1603 45.3965 26.3684C45.4359 26.571 45.5146 26.7426 45.6328 26.8833C45.8072 27.0914 46.0576 27.1955 46.3839 27.1955C46.7328 27.1955 47.0113 27.083 47.2195 26.8579C47.3995 26.6498 47.4895 26.3825 47.4895 26.0562V25.8283H46.3839V24.8493H48.6542V25.727ZM53.9857 28.1914H50.0866V22.1824H51.2597V27.1449H53.9857V28.1914ZM59.2843 24.4358C59.2899 24.5933 59.2927 24.8437 59.2927 25.1869C59.2927 25.5301 59.2899 25.7805 59.2843 25.938C59.2787 26.0956 59.259 26.2925 59.2252 26.5288C59.1915 26.7595 59.1296 26.9564 59.0396 27.1196C58.9552 27.2827 58.8398 27.4375 58.6935 27.5838C58.2547 28.0226 57.7145 28.242 57.0731 28.242C56.4261 28.242 55.8831 28.0226 55.4443 27.5838C55.298 27.4375 55.1826 27.2856 55.0982 27.128C55.0139 26.9648 54.9548 26.7623 54.921 26.5204C54.8873 26.2784 54.8676 26.0843 54.8619 25.938C54.8563 25.7917 54.8535 25.5414 54.8535 25.1869C54.8535 24.8324 54.8563 24.5821 54.8619 24.4358C54.8676 24.2895 54.8873 24.0954 54.921 23.8534C54.9548 23.6115 55.0139 23.4118 55.0982 23.2542C55.1826 23.0911 55.298 22.9363 55.4443 22.79C55.8831 22.3512 56.4261 22.1317 57.0731 22.1317C57.7145 22.1317 58.2547 22.3512 58.6935 22.79C58.8398 22.9363 58.9552 23.0911 59.0396 23.2542C59.1296 23.4174 59.1915 23.6171 59.2252 23.8534C59.259 24.0841 59.2787 24.2782 59.2843 24.4358ZM58.0606 26.36C58.0999 26.1406 58.1196 25.7495 58.1196 25.1869C58.1196 24.6243 58.0999 24.236 58.0606 24.0222C58.0212 23.8028 57.9424 23.6284 57.8243 23.499C57.6386 23.2852 57.3882 23.1783 57.0731 23.1783C56.7524 23.1783 56.4992 23.2852 56.3136 23.499C56.1954 23.6284 56.1166 23.8 56.0772 24.0138C56.0435 24.2276 56.0266 24.6186 56.0266 25.1869C56.0266 25.7552 56.0435 26.1462 56.0772 26.36C56.1166 26.5738 56.1954 26.7454 56.3136 26.8748C56.4992 27.0886 56.7524 27.1955 57.0731 27.1955C57.3882 27.1955 57.6386 27.0886 57.8243 26.8748C57.9424 26.7454 58.0212 26.5738 58.0606 26.36ZM65.1799 26.4613C65.1799 27.007 65.0111 27.4318 64.6735 27.7357C64.3359 28.0395 63.8914 28.1914 63.34 28.1914H60.825V22.1824H63.2387C63.8183 22.1824 64.2712 22.3343 64.5975 22.6381C64.9295 22.942 65.0955 23.3527 65.0955 23.8703C65.0955 24.1741 65.0167 24.4358 64.8591 24.6552C64.7072 24.869 64.5384 25.0209 64.3528 25.1109C64.9042 25.3698 65.1799 25.8199 65.1799 26.4613ZM63.8042 26.9339C63.9392 26.7932 64.0067 26.616 64.0067 26.4022C64.0067 26.1884 63.9392 26.014 63.8042 25.8789C63.6692 25.7383 63.475 25.668 63.2219 25.668H61.9981V27.1449H63.2219C63.475 27.1449 63.6692 27.0746 63.8042 26.9339ZM63.7198 24.4273C63.8548 24.2979 63.9223 24.1291 63.9223 23.9209C63.9223 23.7128 63.8548 23.5468 63.7198 23.423C63.5848 23.2936 63.3935 23.2289 63.1459 23.2289H61.9981V24.613H63.1459C63.3935 24.613 63.5848 24.5511 63.7198 24.4273ZM71.3594 28.1914H70.1356L69.7812 27.128H67.6459L67.283 28.1914H66.0593L68.2452 22.1824H69.1651L71.3594 28.1914ZM69.4689 26.1406L68.7347 23.9547L67.9751 26.1406H69.4689ZM76.3362 28.1914H72.4371V22.1824H73.6102V27.1449H76.3362V28.1914Z" fill="black"/>
</g>
<defs>
<clipPath id="clip0_1497_15117">
<rect width="109" height="32.0196" fill="white"/>
</clipPath>
</defs>
</svg>
